<?xml version="1.0" encoding="iso-8859-1"?>
<!-- Generator: Adobe Illustrator 16.0.0, SVG Export Plug-In . SVG Version: 6.00 Build 0)  -->
<!DOCTYPE svg PUBLIC "-//W3C//DTD SVG 1.1//EN" "http://www.w3.org/Graphics/SVG/1.1/DTD/svg11.dtd">
<svg version="1.1" id="Capa_1" xmlns="http://www.w3.org/2000/svg" xmlns:xlink="http://www.w3.org/1999/xlink" x="0px" y="0px"
	 width="962.689px" height="962.689px" viewBox="0 0 962.689 962.689" style="enable-background:new 0 0 962.689 962.689;"
	 xml:space="preserve">
<g>
	<g>
		<path d="M254.233,833.65l115.735,129.039l111.377-275.766l111.377,275.766L708.457,833.65l172.888,12.469L734.478,482.484
			c35.706-51.094,54.944-111.771,54.944-175.408c0-82.023-31.941-159.138-89.941-217.137C641.481,31.941,564.368,0,482.345,0
			S323.208,31.941,265.209,89.94c-58,57.999-89.941,135.113-89.941,217.137c0,62.88,18.792,122.864,53.685,173.573L81.345,846.119
			L254.233,833.65z M482.345,68c63.86,0,123.896,24.868,169.053,70.024c45.156,45.155,70.024,105.193,70.024,169.053
			c0,33.158-6.72,65.28-19.489,94.829c-10.885,25.191-26.171,48.508-45.473,68.99c-1.661,1.764-3.342,3.513-5.063,5.232
			c-30.952,30.954-68.897,52.37-110.272,62.782c-14.146,3.561-28.693,5.82-43.498,6.748c-5.067,0.316-10.16,0.494-15.282,0.494
			c-5.779,0-11.526-0.209-17.234-0.613c-14.914-1.057-29.555-3.488-43.784-7.217c-40.504-10.615-77.643-31.801-108.035-62.194
			c-2.206-2.205-4.349-4.457-6.457-6.731c-19.25-20.774-34.424-44.396-45.108-69.894c-12.103-28.885-18.459-60.167-18.459-92.428
			c0-63.859,24.868-123.897,70.024-169.053C358.447,92.868,418.484,68,482.345,68z M777.445,770.449l-97.351-7.021l-65.168,72.66
			l-90.778-224.762c59.204-8.01,114.369-32.984,159.727-72.555L777.445,770.449z M279.341,537.469
			c45.152,39.895,100.174,65.229,159.303,73.602l-90.881,225.02l-65.168-72.66l-97.351,7.02L279.341,537.469z"/>
		<polygon points="464.764,260.005 464.764,437.148 464.764,450.542 464.764,459.668 520.521,459.668 532.764,459.668 
			532.764,423.078 532.764,132.962 375.254,237.944 412.968,294.528 		"/>
	</g>
</g>
<g>
</g>
<g>
</g>
<g>
</g>
<g>
</g>
<g>
</g>
<g>
</g>
<g>
</g>
<g>
</g>
<g>
</g>
<g>
</g>
<g>
</g>
<g>
</g>
<g>
</g>
<g>
</g>
<g>
</g>
</svg>
